<svg width="20" height="20" viewBox="0 0 20 20" fill="none" xmlns="http://www.w3.org/2000/svg">
<g clip-path="url(#clip0_138_1217)">
<path fill-rule="evenodd" clip-rule="evenodd" d="M10 3.33335C6.31812 3.33335 3.33335 6.31812 3.33335 10C3.33335 13.6819 6.31812 16.6667 10 16.6667C13.6819 16.6667 16.6667 13.6819 16.6667 10C16.6667 6.31812 13.6819 3.33335 10 3.33335ZM1.66669 10C1.66669 5.39765 5.39765 1.66669 10 1.66669C14.6024 1.66669 18.3334 5.39765 18.3334 10C18.3334 14.6024 14.6024 18.3334 10 18.3334C5.39765 18.3334 1.66669 14.6024 1.66669 10Z" fill="#56CDAD"/>
<path fill-rule="evenodd" clip-rule="evenodd" d="M13.0893 7.74408C13.4147 8.06951 13.4147 8.59715 13.0893 8.92259L9.75594 12.2559C9.43051 12.5814 8.90287 12.5814 8.57743 12.2559L6.91076 10.5893C6.58533 10.2638 6.58533 9.73618 6.91076 9.41074C7.2362 9.08531 7.76384 9.08531 8.08928 9.41074L9.16669 10.4882L11.9108 7.74408C12.2362 7.41864 12.7638 7.41864 13.0893 7.74408Z" fill="#56CDAD"/>
</g>
<defs>
<clipPath id="clip0_138_1217">
<rect width="20" height="20" fill="white"/>
</clipPath>
</defs>
</svg>
